<svg width='423' height='498.44' viewBox="0 0 423 498.44">
  <path d="M6.5,103.12v-34c2.09-.54,4.21-1,6.27-1.64q94.66-29.56,189.3-59.21c5.67-1.78,10.93-2.59,17-.67,45.38,14.45,90.86,28.6,136.34,42.76,20.35,6.34,40.75,12.5,61.12,18.75v34c-.88,11.6-1.72,23.21-2.65,34.81-3.5,44-11.16,87.19-24.3,129.34-20.39,65.42-52,124.3-101.67,172.5-21.07,20.43-44.27,37.86-70.8,50.67-4,1.92-7.49,2.13-11.32-.07-9.37-5.4-19.19-10.12-28.17-16.09-49.17-32.72-85.38-76.93-112.44-128.9C29.53,277,13.59,203.33,8.23,127,7.67,119,7.08,111.07,6.5,103.12Z" fill="#0070c9" stroke="#0698fc" stroke-miterlimit="10" stroke-width="13"/>
  <circle cx="211.5" cy="214.08" r="80.71" fill="#fff"/>
  <polyline points="177.7 217.57 197.38 236.93 245.3 191.22" fill="none" stroke="#0070c9" stroke-miterlimit="10" stroke-width="6"/>
</svg>
