<svg width='64.2' height='12.92' viewBox="0 0 64.2 12.92">
  <path d="M32.16.06l.74,1.56c.36.77.73,1.55,1.08,2.32a.52.52,0,0,0,.46.33c1.33.19,2.65.43,4,.6a3.72,3.72,0,0,0,1-.11c1.06-.16,2.12-.34,3.19-.49a.52.52,0,0,0,.44-.35q.8-1.73,1.61-3.45c.07-.14.15-.27.26-.47.11.2.19.33.26.47Q46,2.19,46.8,3.92a.52.52,0,0,0,.44.35c1.33.19,2.65.44,4,.6a5.61,5.61,0,0,0,1.42-.17c.93-.14,1.85-.3,2.78-.42a.54.54,0,0,0,.47-.36C56.42,2.77,57,1.63,57.49.49c.07-.14.14-.28.25-.49a3.62,3.62,0,0,1,.2.33c.54,1.15,1.09,2.3,1.61,3.45a.77.77,0,0,0,.67.52c1.17.16,2.34.35,3.51.52l.46.1c-.11.14-.18.25-.27.34C63,6.17,62.17,7.08,61.28,8a.7.7,0,0,0-.2.69c.23,1.32.44,2.65.65,4a1.4,1.4,0,0,1,0,.26c-.16-.07-.28-.12-.4-.18-1.08-.59-2.15-1.18-3.22-1.79a.63.63,0,0,0-.71,0c-1.07.61-2.15,1.2-3.22,1.79l-.38.18a2.25,2.25,0,0,1,0-.31q.33-2,.66-4A.61.61,0,0,0,54.26,8q-1.34-1.36-2.66-2.73c-.18-.19-.3-.2-.49,0-.89.93-1.81,1.85-2.7,2.79a.7.7,0,0,0-.16.51c.2,1.33.42,2.65.64,4,0,.1,0,.2,0,.38L48,12.43c-.9-.5-1.8-1-2.69-1.5a.66.66,0,0,0-.74,0c-1.07.61-2.14,1.2-3.22,1.79l-.41.19c.06-.41.1-.75.15-1.08.18-1.09.37-2.18.53-3.28A.7.7,0,0,0,41.45,8c-.88-.93-1.79-1.84-2.68-2.76-.2-.21-.32-.2-.51,0Q36.94,6.66,35.6,8a.63.63,0,0,0-.18.61q.34,2,.66,4a1.38,1.38,0,0,1,0,.26c-.17-.08-.32-.14-.45-.22-1.07-.59-2.13-1.17-3.19-1.77a.61.61,0,0,0-.68,0l-3.22,1.79c-.11.06-.23.1-.41.18.06-.4.1-.74.16-1.07.18-1.09.37-2.18.54-3.28A.7.7,0,0,0,28.63,8c-.89-.94-1.8-1.85-2.7-2.79-.17-.18-.29-.19-.47,0Q24.12,6.66,22.75,8a.6.6,0,0,0-.16.58q.34,2,.66,4a1.52,1.52,0,0,1,0,.26c-.15-.07-.28-.11-.4-.18-1.08-.59-2.15-1.18-3.22-1.79a.64.64,0,0,0-.71,0c-1.07.61-2.15,1.2-3.22,1.79-.11.06-.23.1-.42.19.05-.38.09-.69.14-1,.18-1.1.38-2.21.54-3.31a.74.74,0,0,0-.16-.54c-.89-.94-1.8-1.86-2.7-2.79-.17-.18-.28-.2-.47,0-.9.94-1.83,1.86-2.72,2.81a.74.74,0,0,0-.14.55c.2,1.34.43,2.67.65,4a2,2,0,0,1,0,.27c-.16-.07-.29-.11-.41-.18C9,12.12,7.87,11.53,6.81,10.92a.64.64,0,0,0-.71,0C5,11.54,4,12.13,2.88,12.72c-.11.06-.23.1-.38.17a2.29,2.29,0,0,1,0-.32q.33-2,.66-4A.61.61,0,0,0,3,8C2.07,7.11,1.2,6.22.33,5.32c-.1-.1-.18-.21-.33-.37.3-.06.54-.13.78-.16C1.9,4.6,3,4.43,4.16,4.27a.49.49,0,0,0,.42-.33L6.18.52c.07-.15.15-.3.26-.51a3.66,3.66,0,0,1,.21.33c.53,1.13,1.08,2.25,1.58,3.4A.87.87,0,0,0,9,4.32c1.25.17,2.48.39,3.73.55a4.05,4.05,0,0,0,1.07-.11c1.05-.16,2.1-.34,3.16-.49a.52.52,0,0,0,.45-.34Q18.2,2.22,19,.51c.07-.15.15-.3.26-.51.1.17.18.28.23.4.54,1.16,1.09,2.32,1.63,3.48a.59.59,0,0,0,.51.4c1.32.19,2.63.44,3.95.59A5.75,5.75,0,0,0,27,4.7c.93-.14,1.85-.28,2.78-.44a.62.62,0,0,0,.39-.3c.54-1.11,1.06-2.24,1.58-3.36.08-.18.18-.35.27-.53Z" fill="#f99c08"/>
</svg>
