<svg width='142.85' height='24' viewBox="0 0 142.85 24">
  <title>logo</title>
  <g>
    <path d="M4.1,5.11,8.79,16.8,13.47,5.11h2.45V19.44H14V13.86l.18-6-4.7,11.6H8.06L3.37,7.87l.19,6v5.58H1.66V5.11Z" transform="translate(-1.66)" fill="#fff"/>
    <path d="M25.55,19.44a3.8,3.8,0,0,1-.26-1.12,4.06,4.06,0,0,1-3,1.32,3.76,3.76,0,0,1-2.58-.89,2.88,2.88,0,0,1-1-2.26,3,3,0,0,1,1.26-2.58A6,6,0,0,1,23.49,13h1.77v-.84a2,2,0,0,0-.57-1.52A2.29,2.29,0,0,0,23,10.06a2.65,2.65,0,0,0-1.63.49,1.45,1.45,0,0,0-.66,1.19H18.89a2.51,2.51,0,0,1,.57-1.54A3.87,3.87,0,0,1,21,9a5.16,5.16,0,0,1,2.13-.43A4.21,4.21,0,0,1,26,9.52a3.32,3.32,0,0,1,1.08,2.53V17a6,6,0,0,0,.37,2.33v.16Zm-3-1.39a3.2,3.2,0,0,0,1.62-.44,2.68,2.68,0,0,0,1.11-1.15V14.27H23.84q-3.35,0-3.35,2a1.66,1.66,0,0,0,.57,1.34A2.19,2.19,0,0,0,22.53,18.05Z" transform="translate(-1.66)" fill="#fff"/>
    <path d="M35.08,10.43a5.46,5.46,0,0,0-.9-.07,2.4,2.4,0,0,0-2.43,1.53v7.56H29.94V8.79h1.77l0,1.23A2.84,2.84,0,0,1,34.28,8.6a1.86,1.86,0,0,1,.81.14Z" transform="translate(-1.66)" fill="#fff"/>
    <path d="M39.73,14.51,38.59,15.7v3.74H36.77V4.33h1.82v9.14l1-1.17,3.32-3.5h2.21L41,13.24l4.63,6.2H43.44Z" transform="translate(-1.66)" fill="#fff"/>
    <path d="M51.39,19.64a4.65,4.65,0,0,1-3.52-1.42,5.28,5.28,0,0,1-1.36-3.8v-.33a6.39,6.39,0,0,1,.61-2.83A4.72,4.72,0,0,1,48.81,9.3a4.26,4.26,0,0,1,2.36-.7A4,4,0,0,1,54.39,10a5.92,5.92,0,0,1,1.15,3.92v.76H48.33a3.78,3.78,0,0,0,.92,2.54,2.89,2.89,0,0,0,2.24,1,3.17,3.17,0,0,0,1.63-.39,4.12,4.12,0,0,0,1.17-1l1.11.87A4.47,4.47,0,0,1,51.39,19.64Zm-.23-9.55a2.43,2.43,0,0,0-1.85.8,3.89,3.89,0,0,0-.93,2.25h5.33V13A3.47,3.47,0,0,0,53,10.85,2.29,2.29,0,0,0,51.17,10.09Z" transform="translate(-1.66)" fill="#fff"/>
    <path d="M60.12,6.21V8.79h2V10.2h-2v6.61a1.48,1.48,0,0,0,.27,1,1.12,1.12,0,0,0,.91.32,4.46,4.46,0,0,0,.87-.12v1.47a5.33,5.33,0,0,1-1.4.2,2.27,2.27,0,0,1-1.84-.74,3.17,3.17,0,0,1-.62-2.1V10.2H56.36V8.79H58.3V6.21Z" transform="translate(-1.66)" fill="#fff"/>
  </g>
  <g>
    <rect x="64.85" width="78" height="24" rx="5.48" ry="5.48" fill="#13a54e"/>
    <g>
      <path d="M84,15,84,15a4.42,4.42,0,0,1-1.41,3.5,5.54,5.54,0,0,1-3.91,1.33,5.26,5.26,0,0,1-4.06-1.69,6.12,6.12,0,0,1-1.55-4.32V11.12A6.19,6.19,0,0,1,74.61,6.8a5.15,5.15,0,0,1,4-1.7,5.78,5.78,0,0,1,4,1.29A4.38,4.38,0,0,1,84,9.93L84,10H81.67a3,3,0,0,0-.78-2.2A3.13,3.13,0,0,0,78.61,7a2.72,2.72,0,0,0-2.31,1.16,4.79,4.79,0,0,0-.85,2.92v2.75a4.77,4.77,0,0,0,.87,2.94,2.79,2.79,0,0,0,2.36,1.16,3,3,0,0,0,2.23-.77A3,3,0,0,0,81.67,15Z" transform="translate(-1.66)" fill="#fff"/>
      <path d="M88.42,10.37a3.79,3.79,0,0,1,1.29-1.16,3.47,3.47,0,0,1,1.69-.41A3.35,3.35,0,0,1,94,9.86,4.85,4.85,0,0,1,95,13.16v6.49H92.6v-6.5a2.76,2.76,0,0,0-.49-1.82,1.81,1.81,0,0,0-1.45-.57,3,3,0,0,0-1.33.27,2.43,2.43,0,0,0-.92.75v7.86H86V4.29h2.39Z" transform="translate(-1.66)" fill="#fff"/>
      <path d="M102,19.85a4.64,4.64,0,0,1-3.65-1.47A5.51,5.51,0,0,1,97,14.56v-.39a5.7,5.7,0,0,1,1.31-3.86,4.25,4.25,0,0,1,3.39-1.51A4,4,0,0,1,105,10.12a5.35,5.35,0,0,1,1.1,3.54v1.29H99.5l0,0a3.49,3.49,0,0,0,.69,2.13,2.35,2.35,0,0,0,2,.82,5.39,5.39,0,0,0,1.69-.24,4.82,4.82,0,0,0,1.32-.68l.78,1.57a5.09,5.09,0,0,1-1.61.9A6.78,6.78,0,0,1,102,19.85Zm-.26-9.13a1.85,1.85,0,0,0-1.5.67,3.34,3.34,0,0,0-.7,1.76l0,0h4.16V13a2.69,2.69,0,0,0-.48-1.66A1.77,1.77,0,0,0,101.73,10.71Z" transform="translate(-1.66)" fill="#fff"/>
      <path d="M112.36,17.94a2,2,0,0,0,1.38-.51,1.68,1.68,0,0,0,.57-1.3h2.17l0,.06a3.21,3.21,0,0,1-1.19,2.58,4.75,4.75,0,0,1-6.5-.44,5.84,5.84,0,0,1-1.25-3.83v-.34a5.85,5.85,0,0,1,1.25-3.83,4.32,4.32,0,0,1,3.54-1.53,4.18,4.18,0,0,1,3,1.12,3.65,3.65,0,0,1,1.12,2.84l0,.06h-2.17a2.16,2.16,0,0,0-.54-1.49,1.81,1.81,0,0,0-1.42-.61,2,2,0,0,0-1.84,1,4.9,4.9,0,0,0-.56,2.45v.34A4.94,4.94,0,0,0,110.5,17,2,2,0,0,0,112.36,17.94Z" transform="translate(-1.66)" fill="#fff"/>
      <path d="M120.89,15.28v4.36h-2.38V4.29h2.38v7l2.7-4h2.8Z" transform="translate(-1.66)" fill="#fff"/>
    </g>
  </g>
  <polygon points="122.24 13.65 126.58 18.59 125.17 18.55 141.85 4.28 126.54 20.01 125.86 20.7 125.12 19.96 120.85 16.28 122.24 13.65" fill="#fff"/>
</svg>
