<svg xmlns="http://www.w3.org/2000/svg" viewBox="0 0 142.8 14.73">
  <path d="M2.44.21,7.13,11.9,11.81.21h2.45V14.54H12.37V9l.18-6-4.7,11.6H6.4L1.7,3l.19,6v5.58H0V.21ZM25.51,10.79h-6l-1.35,3.75H16.21L21.68.21h1.65l5.48,14.33H26.88ZM20.08,9.24h4.87l-2.44-6.7ZM36,8.74H32.63v5.8h-1.9V.21h4.74a5.62,5.62,0,0,1,3.73,1.1,4,4,0,0,1,1.3,3.21,3.85,3.85,0,0,1-.72,2.33,4.32,4.32,0,0,1-2,1.49l3.37,6.08v.12h-2ZM32.63,7.19h2.9a3.27,3.27,0,0,0,2.24-.73,2.47,2.47,0,0,0,.83-2,2.6,2.6,0,0,0-.79-2,3.35,3.35,0,0,0-2.29-.72H32.63Zm14.16.68L45,9.69v4.84H43.15V.21H45V7.29L51.41.21H53.7L48.06,6.54l6.08,8H51.87Zm17.09,0H57.68V13H64.9v1.54h-9.1V.21h9V1.75H57.68V6.37h6.21ZM77.34,1.75H72.74V14.54H70.86V1.75h-4.6V.21H77.34ZM90.48,9.68a5.23,5.23,0,0,1-.81,2.64A4.86,4.86,0,0,1,87.6,14.1a7,7,0,0,1-3,.63,5.63,5.63,0,0,1-4.45-1.84,7.6,7.6,0,0,1-1.62-5.2V7a8.68,8.68,0,0,1,.73-3.69A5.56,5.56,0,0,1,81.33.86,5.89,5.89,0,0,1,84.52,0a6.18,6.18,0,0,1,4.19,1.37,5.43,5.43,0,0,1,1.8,3.78H87.07a2.57,2.57,0,0,0-.66-1.88,2.71,2.71,0,0,0-1.89-.57,2.06,2.06,0,0,0-1.89,1A6.2,6.2,0,0,0,82,6.75v1A6.86,6.86,0,0,0,82.58,11a2.1,2.1,0,0,0,2,1,2.65,2.65,0,0,0,1.82-.56A2.38,2.38,0,0,0,87,9.68Zm13.61,4.85h-3.43v-6H95.57v6H92.12V.21h3.45V5.9h5.09V.21h3.43Zm11.07-6.08h-5.43v3.42h6.42v2.66h-9.87V.21h9.89V2.87h-6.44v3h5.43Zm14,1.23a5.23,5.23,0,0,1-.81,2.64,4.86,4.86,0,0,1-2.07,1.78,7,7,0,0,1-3,.63,5.63,5.63,0,0,1-4.45-1.84,7.6,7.6,0,0,1-1.62-5.2V7a8.68,8.68,0,0,1,.73-3.69A5.56,5.56,0,0,1,120,.86,5.89,5.89,0,0,1,123.19,0a6.18,6.18,0,0,1,4.19,1.37,5.43,5.43,0,0,1,1.8,3.78h-3.44a2.57,2.57,0,0,0-.66-1.88,2.71,2.71,0,0,0-1.89-.57,2.06,2.06,0,0,0-1.89,1,6.2,6.2,0,0,0-.63,3.08v1a6.86,6.86,0,0,0,.58,3.28,2.1,2.1,0,0,0,2,1,2.65,2.65,0,0,0,1.82-.56,2.38,2.38,0,0,0,.67-1.78Zm6.5-.48-1.42,1.55v3.78h-3.45V.21h3.45V6.53l1.2-1.82,3.09-4.5h4.27L138,6.54l4.84,8h-4.09Z" />
</svg>
