<svg xmlns="http://www.w3.org/2000/svg" width="43.07" height="43.07" viewBox="0 0 43.07 43.07">
  <title>cam</title>
  <path d="M38.67,43.07H4.41A4.41,4.41,0,0,1,0,38.67V4.41A4.41,4.41,0,0,1,4.41,0H38.67a4.41,4.41,0,0,1,4.41,4.41V38.67A4.41,4.41,0,0,1,38.67,43.07ZM4.41,1A3.41,3.41,0,0,0,1,4.41V38.67a3.41,3.41,0,0,0,3.41,3.41H38.67a3.41,3.41,0,0,0,3.41-3.41V4.41A3.41,3.41,0,0,0,38.67,1ZM25.48,31.24a9.7,9.7,0,1,1,9.7-9.7A9.71,9.71,0,0,1,25.48,31.24Zm0-18.41a8.7,8.7,0,1,0,8.7,8.7A8.71,8.71,0,0,0,25.48,12.83Z" fill="#115baa"/>
</svg>
