<svg width='512.02' height='428.35' viewBox="0 0 512.02 428.35">
  <path d="M488.17,200.19C430,141.31,371.29,83,312.95,24.37c-8.75-8.8-18.27-15.48-30.47-17.91a6.57,6.57,0,0,0-1.28-.12H128.88A6.45,6.45,0,0,0,127,6.6c-26.93,8-36.31,20.95-36.32,49.8,0,44.28.15,88.56-.08,132.84-.08,14.57,4.92,26.36,15.26,36.65q90.75,90.32,181.15,181c19.94,19.91,44.16,20.06,64,.27,46.63-46.48,93.35-92.88,139.48-139.85,6-6.14,9.51-14.8,13.84-22.61L504,224C499,215.75,494.73,206.84,488.17,200.19ZM163.92,109.35c-17,.05-30.07-12.72-30.23-29.45s13.89-31,30.38-30.68a30.59,30.59,0,0,1,29.82,30.41C193.88,96.33,180.81,109.3,163.92,109.35Z" fill="#0070c9"/>
  <path d="M319.28,428.35c-12.67,0-25.36-5.66-36.69-17q-32.16-32.12-64.29-64.28c-38.27-38.28-77.84-77.87-116.86-116.7-11.61-11.56-17.21-25-17.13-41.18.16-31.22.14-63,.11-93.68q0-19.56,0-39.13C84.4,24.3,95.72,9.08,126.19.25l.86-.25H282.43l.57.11c12.35,2.29,23.3,8.58,34.45,19.8,23.37,23.5,47.2,47.33,70.24,70.38,34.48,34.49,70.14,70.15,105,105.45h0c5.56,5.63,9.49,12.47,13.29,19.07,1.7,3,3.3,5.75,5,8.42h0a6.34,6.34,0,0,1,1,3.45v15.74a6.34,6.34,0,0,1-.89,3.24h0c-1.47,2.48-2.81,5.1-4.24,7.88-3.25,6.35-6.62,12.91-11.83,18.21-40.28,41-81.68,82.27-121.71,122.15l-17.81,17.75C344.38,422.78,331.84,428.35,319.28,428.35ZM129.81,12.68a6.42,6.42,0,0,0-1.87.28c-23.6,7.22-30.87,17.63-30.87,43.45q0,19.56,0,39.11c0,30.73.06,62.5-.11,93.76-.07,12.76,4.19,23,13.4,32.13,39,38.84,78.61,78.44,116.88,116.73q32.13,32.14,64.28,64.27c17.56,17.54,37.63,17.64,55.06.27l17.81-17.75c40-39.86,81.39-81.08,121.61-122.05,3.85-3.92,6.64-9.36,9.59-15.12.95-1.85,1.91-3.74,2.94-5.61a6.37,6.37,0,0,0,.79-3.05V230.3a6.36,6.36,0,0,0-.93-3.29c-1.19-2-2.33-3.94-3.44-5.88-3.55-6.18-6.91-12-11.32-16.48h0c-34.83-35.28-70.47-70.92-104.94-105.4-23-23.05-46.88-46.89-70.26-70.41-9-9-17.22-14-26.54-16a6.51,6.51,0,0,0-1.37-.14Zm34,103c-20.27,0-36.27-15.67-36.46-35.73a37.1,37.1,0,0,1,11-26.48,35.62,35.62,0,0,1,25.82-10.59,36.86,36.86,0,0,1,36,36.75c0,20.16-16,36-36.29,36.06h-.12Zm-.22-60.14a23.08,23.08,0,0,0-16.3,6.92A24.35,24.35,0,0,0,140,79.84c.12,13.23,10.34,23.18,23.78,23.18h.09c13.47,0,23.64-10.1,23.66-23.4A24.12,24.12,0,0,0,164,55.55Z" fill="#0698fc"/>
  <circle cx="298.16" cy="214.12" r="80.71" fill="#fff"/>
  <polyline points="264.36 217.62 284.04 236.98 331.97 191.27" fill="none" stroke="#0070c9" stroke-miterlimit="10" stroke-width="6"/>
  <path d="M163.94,115.29c-20.31.07-36-15.23-36.19-35.27S144.38,43,164.13,43.28a36.62,36.62,0,0,1,35.7,36.41C199.81,99.7,184.16,115.22,163.94,115.29Z" fill="none" stroke="#fff" stroke-miterlimit="10"/>
  <path d="M100.46,17.61S85.9-12.84,23,33.5s62.23,76.8,23.83,146.31" fill="none" stroke="#0698fc" stroke-miterlimit="10" stroke-width="10"/>
</svg>
