<svg xmlns="http://www.w3.org/2000/svg" viewBox="0 0 20 23.7">
  <path d="M9.2,8.2c-.4,0-.6-.3-.6-1V4.4c0-.6.2-1,.6-1s.6.4.6,1V7.2C9.8,7.9,9.6,8.2,9.2,8.2ZM4.2,21H3V13.3H1.4V12H5.6v1.3H4.1V21ZM8,20.2a1.34,1.34,0,0,1-1.2.8c-.4,0-.7,0-.8-.4V14.4H7v5.4l.4.2a.65.65,0,0,0,.7-.5v-5H9.5V21H8v-.8Zm4.7-4c0-.6-.2-1-.6-1-.2,0-.4.2-.6.4v4l.6.3c.4,0,.6-.3.6-1Zm.2,4.7c-.6,0-1,0-1.4-.6V21H10.3V12h1.2v3a1.57,1.57,0,0,1,1.3-.7.76.76,0,0,1,.8.7l.2,1.4V19a2.76,2.76,0,0,1-.2,1.4c0,.5-.4.7-1,.7Zm3.3-4h1v-.7c0-.6,0-1-.5-1s-.6.4-.6,1v.6Zm2,3.5a1.51,1.51,0,0,1-1.4.7c-.7,0-1.2,0-1.5-.5a2.73,2.73,0,0,1-.4-1.6V16.5c0-.7,0-1.2.3-1.5a1.51,1.51,0,0,1,1.4-.7,1.93,1.93,0,0,1,1.5.7,2.81,2.81,0,0,1,.3,1.5V18H16v1c0,.7.3,1,.7,1s.5,0,.6-.4v-1h1.2v1c0,.3,0,.5-.3.7Zm1.5-8.2a2.44,2.44,0,0,0-2.2-2A62.7,62.7,0,0,0,10,9.9c-2.5,0-5,0-7.5.2a2.54,2.54,0,0,0-2.2,2A23.72,23.72,0,0,0,0,16.8a24.23,24.23,0,0,0,.3,4.6,2.44,2.44,0,0,0,2.2,2,62.7,62.7,0,0,0,7.5.3,47.15,47.15,0,0,0,7.5-.4,2.54,2.54,0,0,0,2.2-2,23.72,23.72,0,0,0,.3-4.7,24.76,24.76,0,0,0-.3-4.8ZM15.5,2.4H14.3V7.6c-.3.4-.5.6-.8.6,0,0-.2,0-.3-.3V2.3H12V8.7a1.1,1.1,0,0,0,1,.5c.3,0,.8-.3,1.3-1v1h1.2V2.4ZM11,4.6c0-.7,0-1.2-.4-1.6a1.75,1.75,0,0,0-1.4-.7A1.91,1.91,0,0,0,7.8,3a2.73,2.73,0,0,0-.4,1.6V7c0,.7,0,1.2.4,1.6a1.51,1.51,0,0,0,1.4.7,1.62,1.62,0,0,0,1.4-.7A2.73,2.73,0,0,0,11,7ZM6,0,5,3.7,4,0H2.7a16,16,0,0,0,.8,2.6l1,3V9H5.7V5.3L7.4,0Z" />
</svg>
