<svg xmlns="http://www.w3.org/2000/svg" viewBox="0 0 21 19">
  <path d="M16.71,19H4.29A4.3,4.3,0,0,1,0,14.71V7.29A4.3,4.3,0,0,1,4.29,3H16.71A4.3,4.3,0,0,1,21,7.29v7.42A4.3,4.3,0,0,1,16.71,19ZM4.29,4A3.3,3.3,0,0,0,1,7.29v7.42A3.29,3.29,0,0,0,4.29,18H16.71A3.29,3.29,0,0,0,20,14.71V7.29A3.29,3.29,0,0,0,16.71,4ZM16,0H15V2.5h1ZM7,0H6V2.5H7Zm.28,9.72H4.5V6.5H7.28ZM12.14,6.5H9.36V9.72h2.78ZM17,6.5H14.22V9.72H17Zm-9.72,6H4.5v3.22H7.28Zm4.86,0H9.36v3.22h2.78Zm4.86,0H14.22v3.22H17Z" fill="#115baa"/>
</svg>
