<svg xmlns="http://www.w3.org/2000/svg" viewBox="0 0 19.35 25.5">
  <path d="M14.18,25.5H3.82A3.83,3.83,0,0,1,0,21.68V13.32A3.83,3.83,0,0,1,3.82,9.5H14.18A3.83,3.83,0,0,1,18,13.32v8.36A3.83,3.83,0,0,1,14.18,25.5ZM3.82,10.5A2.83,2.83,0,0,0,1,13.32v8.36A2.83,2.83,0,0,0,3.82,24.5H14.18A2.82,2.82,0,0,0,17,21.68V13.32a2.83,2.83,0,0,0-2.82-2.82ZM19.35,5.35a5.35,5.35,0,0,0-10.69,0V9.5h1V5.35a4.35,4.35,0,0,1,8.69,0V9.5h1Zm-11.4,16a.94.94,0,0,0,.9,1,1,1,0,0,0,.88-1.05c0-.71,0-1.43,0-2.14A1.38,1.38,0,0,1,10.16,18a1.72,1.72,0,0,0,0-2.48,1.81,1.81,0,0,0-2.5-.05,1.69,1.69,0,0,0-.15,2.46,1.61,1.61,0,0,1,.48,1.41c0,.24,0,.48,0,.71C7.94,20.48,7.94,20.91,7.94,21.33Z" fill="#115baa"/>
</svg>
