<svg xmlns="http://www.w3.org/2000/svg" viewBox="0 0 22 22">
  <path d="M11,22A11,11,0,1,1,22,11,11,11,0,0,1,11,22ZM11,1A10,10,0,1,0,21,11,10,10,0,0,0,11,1Zm2.29,12a1.43,1.43,0,0,0-.43-1,3.75,3.75,0,0,0-1.44-.78A5,5,0,0,1,9.33,10a2.5,2.5,0,0,1-.7-1.86,2.62,2.62,0,0,1,.65-1.84,2.8,2.8,0,0,1,1.78-.85V.5h1.08v5a2.61,2.61,0,0,1,1.77.94,3.26,3.26,0,0,1,.63,2.11H13.21a2.19,2.19,0,0,0-.43-1.41,1.44,1.44,0,0,0-1.19-.54A1.6,1.6,0,0,0,10.38,7,1.59,1.59,0,0,0,10,8.17a1.44,1.44,0,0,0,.42,1.07,4.08,4.08,0,0,0,1.5.78A5.17,5.17,0,0,1,14,11.15,2.46,2.46,0,0,1,14.64,13a2.5,2.5,0,0,1-.7,1.87,3.13,3.13,0,0,1-1.93.82V21.5H10.92V15.68A3.13,3.13,0,0,1,9,14.82a2.8,2.8,0,0,1-.72-2.16v0h1.3a1.86,1.86,0,0,0,.53,1.5,2,2,0,0,0,1.3.45,2.07,2.07,0,0,0,1.38-.42A1.45,1.45,0,0,0,13.29,13Z" fill="#115baa"/>
</svg>
