<svg xmlns="http://www.w3.org/2000/svg" viewBox="0 0 27.73 28.03"><defs><style>.cls-1{fill:none;stroke:#9ca7ad;stroke-miterlimit:10;}</style></defs><title>Asset 3</title><g id="Layer_2"><g id="Layer_1-2"><g id="fUlkiM.tif"><path class="cls-1" d="M24.76,27.37a2.43,2.43,0,0,0,2.39-2.08h0c.39-3.54-.54-4.72-4.12-6.27A22.85,22.85,0,0,0,9.54,17.59c-5.64,1.1-9.54,3-9,7.88h0A2.33,2.33,0,0,0,2.9,27.53Z"/><path class="cls-1" d="M13.79,13.85A6.63,6.63,0,0,1,7.16,7.11,6.75,6.75,0,0,1,13.84.5a6.75,6.75,0,0,1,6.69,6.72A6.63,6.63,0,0,1,13.79,13.85Z"/></g></g></g></svg>