<svg xmlns="http://www.w3.org/2000/svg" viewBox="0 0 27.75 26.98"><defs><style>.cls-1{fill:none;stroke:#9ca7ad;stroke-linecap:round;stroke-linejoin:round;}</style></defs><title>Asset 2</title><g id="Layer_2"><g id="Layer_1-2"><path class="cls-1" d="M3.57,2.14A8.64,8.64,0,0,1,8.65.5a7.79,7.79,0,0,1,7.56,9.07,1.51,1.51,0,0,0,.5,1.49c3.33,3.3,6.64,6.63,10,9.93a1.71,1.71,0,0,1,.58,1.44c-.08,1.21-.12,2.42-.17,3.63l-.21.21-5.49.19.34-3-3.08.34.3-3c-.8.08-1.38.13-2,.2s-.85-.23-.79-.82.11-1.23.18-2c-1.21,0-2.15.12-3.08.09a1.54,1.54,0,0,1-1-.43,4.11,4.11,0,0,0-3.84-1.64c-3.2.27-5.59-1.45-7-4.24a7.49,7.49,0,0,1,.74-8.21,3,3,0,0,0,.18-.32ZM5.87,8.5a2,2,0,0,0,2.85,0A2,2,0,1,0,5.87,5.7,2,2,0,0,0,5.87,8.5Z"/></g></g></svg>