<svg xmlns="http://www.w3.org/2000/svg" viewBox="0 0 15.41 13.86"><title>Asset 15</title><g id="Layer_2"><g id="Layer_1-2"><path d="M11.16.5a3.83,3.83,0,0,1,2.71,1,3.59,3.59,0,0,1,1,2.66,3.86,3.86,0,0,1-.33,1.6,4.2,4.2,0,0,1-.9,1.3l-6,6.08-6-6.08a4.11,4.11,0,0,1-.9-1.3A4.07,4.07,0,0,1,.5,4.17,3.49,3.49,0,0,1,1.68,1.5,4.26,4.26,0,0,1,4.5.5a3.18,3.18,0,0,1,1.82.66,6.28,6.28,0,0,1,1.38,1.4,5.9,5.9,0,0,1,1.51-1.4A3.72,3.72,0,0,1,11.16.5Z" fill="none" stroke="#8b9ca5" stroke-miterlimit="10"/></g></g></svg>