<svg xmlns="http://www.w3.org/2000/svg" width="32.6" height="18.52" viewBox="0 0 32.6 18.52">
  <title>360</title>
  <path d="M16.3,18.52c-.67,0-16.3,0-16.3-1.82s15.63-1.82,16.3-1.82,16.3,0,16.3,1.82S17,18.52,16.3,18.52ZM.52,16.71C1.09,17.26,6.87,18,16.3,18s15.21-.77,15.78-1.32c-.56-.55-6.34-1.32-15.78-1.32S1.08,16.15.52,16.71ZM4.9,5.06h1a2.13,2.13,0,0,0,1.44-.48,1.61,1.61,0,0,0,.52-1.26A1.58,1.58,0,0,0,6.05,1.53,1.85,1.85,0,0,0,4.71,2a1.67,1.67,0,0,0-.5,1.27H2.92a2.59,2.59,0,0,1,.88-2A3.22,3.22,0,0,1,6.05.46a3.18,3.18,0,0,1,2.26.76,2.75,2.75,0,0,1,.82,2.12A2.23,2.23,0,0,1,8.7,4.63a2.6,2.6,0,0,1-1.17.93,2.5,2.5,0,0,1,1.3.88,2.44,2.44,0,0,1,.46,1.5,2.77,2.77,0,0,1-.89,2.17,3.35,3.35,0,0,1-2.33.8,3.43,3.43,0,0,1-2.33-.78,2.57,2.57,0,0,1-.9-2h1.3a1.66,1.66,0,0,0,.52,1.29,2,2,0,0,0,1.4.48,2,2,0,0,0,1.43-.49A1.88,1.88,0,0,0,8,8a1.71,1.71,0,0,0-.54-1.36,2.37,2.37,0,0,0-1.57-.49h-1ZM16,.6v1.1h-.24a3.4,3.4,0,0,0-2.4.89,3.72,3.72,0,0,0-1,2.44,2.76,2.76,0,0,1,2.19-.92A2.63,2.63,0,0,1,16.67,5a3.61,3.61,0,0,1,.79,2.42A3.6,3.6,0,0,1,16.61,10a3,3,0,0,1-2.3.94A2.9,2.9,0,0,1,11.94,9.8,4.45,4.45,0,0,1,11,6.91v-.5a6.69,6.69,0,0,1,1.2-4.29A4.4,4.4,0,0,1,15.8.6Zm-1.7,4.58a2.18,2.18,0,0,0-2,1.4v.47a3.34,3.34,0,0,0,.57,2,1.7,1.7,0,0,0,1.41.77,1.64,1.64,0,0,0,1.37-.64,2.67,2.67,0,0,0,.5-1.68,2.67,2.67,0,0,0-.51-1.69A1.62,1.62,0,0,0,14.33,5.18ZM25.27,6.44a5.91,5.91,0,0,1-.78,3.38,2.76,2.76,0,0,1-2.42,1.1,2.78,2.78,0,0,1-2.41-1.08,5.61,5.61,0,0,1-.81-3.22V4.89a5.78,5.78,0,0,1,.78-3.33A2.78,2.78,0,0,1,22.06.46a2.81,2.81,0,0,1,2.42,1.05,5.59,5.59,0,0,1,.8,3.25ZM24,4.67a4.73,4.73,0,0,0-.46-2.39,1.59,1.59,0,0,0-1.46-.75,1.57,1.57,0,0,0-1.45.75,4.62,4.62,0,0,0-.47,2.3V6.64a4.81,4.81,0,0,0,.48,2.44,1.58,1.58,0,0,0,1.45.79,1.56,1.56,0,0,0,1.42-.74A4.64,4.64,0,0,0,24,6.79Zm7.25-1.43a3.67,3.67,0,0,1-.29,1.52,2.22,2.22,0,0,1-.83,1,2.29,2.29,0,0,1-3.34-1,3.53,3.53,0,0,1-.31-1.48V2.86a3.63,3.63,0,0,1,.3-1.51A2.2,2.2,0,0,1,28.85,0,2.3,2.3,0,0,1,30.1.34a2.22,2.22,0,0,1,.84,1,3.7,3.7,0,0,1,.29,1.52Zm-.78-.38A2.66,2.66,0,0,0,30,1.24,1.4,1.4,0,0,0,28.85.67a1.38,1.38,0,0,0-1.17.56,2.61,2.61,0,0,0-.44,1.57v.44a2.67,2.67,0,0,0,.43,1.61,1.5,1.5,0,0,0,2.36,0,2.64,2.64,0,0,0,.43-1.58Z" fill="#6f7d89"/>
</svg>
