<svg xmlns="http://www.w3.org/2000/svg" width="44.39" height="44.39" viewBox="0 0 44.39 44.39">
  <title>wheels</title>
  <path d="M22.19,44.39A22.19,22.19,0,1,1,44.39,22.19,22.22,22.22,0,0,1,22.19,44.39ZM22.19,1A21.19,21.19,0,1,0,43.39,22.19,21.22,21.22,0,0,0,22.19,1ZM26,12.13a45.44,45.44,0,0,0,5.36-5c.73-.76,1.46-1.53,2.22-2.27l-.7-.71c-.76.75-1.5,1.52-2.24,2.29a44.23,44.23,0,0,1-5.24,4.92c-2,1.49-7,.43-8.73-1.38-1.28-1.32-2.54-2.7-3.76-4l-1.65-1.8-.73.68,1.65,1.8c1.22,1.34,2.49,2.72,3.78,4.06A10.14,10.14,0,0,0,22.65,13,5.64,5.64,0,0,0,26,12.13ZM4.17,25.94C5.56,25.39,7,24.82,8.39,24.2s2.9-2.94,3.57-4.88.7-3.42.19-4.39c-1-1.91-2.15-3.7-3.37-5.59-.52-.81-1-1.63-1.57-2.47l-.85.53c.52.84,1.05,1.67,1.57,2.48,1.2,1.88,2.34,3.65,3.33,5.52A5.1,5.1,0,0,1,11,19c-.7,2-2,3.82-3,4.29-1.37.61-2.8,1.18-4.18,1.72-.88.35-1.76.69-2.63,1.06l.38.92C2.42,26.63,3.3,26.28,4.17,25.94ZM20,43.84c-.09-.93-.18-1.84-.26-2.74C19.58,39,19.4,37,19.09,35c-.38-2.42-5.54-6.23-8-5.91A73.83,73.83,0,0,0,2.6,30.82l.24,1a73.21,73.21,0,0,1,8.36-1.71c2-.26,6.6,3.16,6.9,5.07s.49,3.94.68,6c.08.91.16,1.82.26,2.75Zm5.15-2.74c.19-2.07.37-4,.72-6,.42-2.33,5.27-5.37,7.84-4.94,2.41.4,4.87,1,7,1.44h.81v-1h-.65c-2.17-.49-4.62-1-7-1.44-3.2-.54-8.47,2.85-9,5.75-.36,2-.54,4-.73,6.06-.08.91-.17,1.83-.27,2.77l1,.11C25,42.94,25.1,42,25.18,41.1Zm18.9-14.52c-.9-.38-1.82-.75-2.74-1.11a58.54,58.54,0,0,1-6.21-2.75,5.32,5.32,0,0,1-2-3.29c-.54-2-.47-4.12.16-5.15,1.08-1.75,2.19-3.48,3.3-5.21l.63-1a1.37,1.37,0,0,1,.23-.2l.29-.23-.65-.76-.25.2a1.83,1.83,0,0,0-.45.44l-.63,1c-1.12,1.74-2.24,3.47-3.31,5.23-.9,1.46-.79,4-.28,5.93a6.18,6.18,0,0,0,2.5,3.92A59.28,59.28,0,0,0,41,26.4c.91.36,1.82.72,2.72,1.1Z" fill="#115baa"/>
</svg>
