<svg xmlns="http://www.w3.org/2000/svg" width="51.89" height="49.85" viewBox="0 0 51.89 49.85">
  <title>brake</title>
  <path d="M42.22,20.91A18.68,18.68,0,0,0,32.46,9l4.45-9a28.67,28.67,0,0,1,15,18.36ZM25.73,49.8A24.2,24.2,0,0,0,48.28,24.12l-1,.06a23.14,23.14,0,1,1-17.68-21l.23-1a24.27,24.27,0,0,0-7.24-.62A24.17,24.17,0,0,0,8.22,43.84a24,24,0,0,0,15.91,6C24.66,49.85,25.2,49.83,25.73,49.8Zm7.52-24.12a9.09,9.09,0,1,0-9.08,9.08A9.09,9.09,0,0,0,33.25,25.68Zm-1,0a8.09,8.09,0,1,1-8.08-8.08A8.09,8.09,0,0,1,32.25,25.68Zm-4.79,0A3.29,3.29,0,1,0,24.17,29,3.3,3.3,0,0,0,27.46,25.68Zm-1,0a2.29,2.29,0,1,1-2.29-2.29A2.3,2.3,0,0,1,26.46,25.68ZM39.35,5.85a2,2,0,1,0,2,2A2,2,0,0,0,39.35,5.85Zm5,6a2,2,0,1,0,2,2A2,2,0,0,0,44.35,11.85Z" fill="#115baa"/>
</svg>
