<svg xmlns="http://www.w3.org/2000/svg" width="43.16" height="43.05" viewBox="0 0 43.16 43.05">
  <title>geo</title>
  <path d="M23,43l-.11-.4c0-.18-.1-.36-.15-.54a11.91,11.91,0,0,1-.31-1.23l-.56-3.09c-.74-4.08-1.51-8.3-2.19-12.46a1.86,1.86,0,0,0-1.82-1.87C13.91,22.82,9.91,22.1,6,21.39L2.3,20.72c-.41-.07-.81-.17-1.22-.26l-.83-.19L0,19.05,42.2,0l1,.85L24.15,43ZM1.42,19.51c.35.08.71.16,1.06.22l3.74.68c3.86.7,7.86,1.43,11.79,2.08a2.83,2.83,0,0,1,2.64,2.69c.68,4.16,1.44,8.37,2.19,12.44l.56,3.09a9.44,9.44,0,0,0,.24,1L41.89,1.24Z" fill="#115baa"/>
</svg>
