<svg xmlns="http://www.w3.org/2000/svg" width="47.95" height="48.67" viewBox="0 0 47.95 48.67">
  <title>keyless</title>
  <path d="M6.71,48.67H6.42c-1.27-.09-2.55-.15-3.82-.21L.86,48.36.1,47.6l0-2.11c0-1.69,0-3.37-.07-5.06a1.54,1.54,0,0,1,.37-1.18,1.44,1.44,0,0,1,1.12-.31c.68,0,1.36.07,2.16.09l.64,0-.56-4.2H5.57c.83,0,1.51,0,2.19,0,.31,0,.36,0,.36,0s.06-.07.06-.44c0-3.26.22-3.49,3.46-3.5l.74,0h.07c0-.25,0-.49,0-.74a27.8,27.8,0,0,1-.08-3,3.26,3.26,0,0,1,.93-2.22,5.57,5.57,0,0,0,2.18-5.25c-.32-4.72,2-8.63,6.65-11A12.54,12.54,0,0,1,26.8,7.2l.09,1a11.55,11.55,0,0,0-4.33,1.3c-4.23,2.19-6.4,5.77-6.11,10.06a6.6,6.6,0,0,1-2.53,6.09,2.34,2.34,0,0,0-.58,1.5A26.52,26.52,0,0,0,13.41,30c0,.42.05.83.07,1.25l0,.5-1.07,0-.78,0c-1.21,0-2,0-2.24.24s-.23,1.09-.23,2.26a1.55,1.55,0,0,1-.37,1.16,1.5,1.5,0,0,1-1.1.32c-.67,0-1.33,0-2.14,0H4.87l.57,4.25L3.62,40c-.82,0-1.51,0-2.2-.09-.29,0-.36,0-.36,0S1,40,1,40.41c0,1.69.06,3.39.07,5.08l0,1.7.2.2,1.35.07c1.28.06,2.56.12,3.84.21a2.31,2.31,0,0,0,2-.8q3.34-3.38,6.7-6.73,4-4,8-8A3.34,3.34,0,0,1,26.35,31a11.17,11.17,0,0,0,8.74-2.41,11.39,11.39,0,0,0,4.14-8.13l1,.06a12.39,12.39,0,0,1-4.5,8.85A12.16,12.16,0,0,1,26.21,32a2.33,2.33,0,0,0-2.32.79q-4,4-8,8-3.36,3.36-6.7,6.73A3.31,3.31,0,0,1,6.71,48.67ZM31.52,19.55a3.48,3.48,0,0,1-2.46-1h0a3.51,3.51,0,0,1-1-2.48,3.47,3.47,0,0,1,3.48-3.49h0a3.49,3.49,0,0,1,0,7Zm-1.75-1.72a2.48,2.48,0,1,0,1.75-4.25h0A2.47,2.47,0,0,0,29,16.06a2.52,2.52,0,0,0,.75,1.77Zm17.18.25A18.37,18.37,0,0,0,29.73,1l.06-1A19.37,19.37,0,0,1,47.95,18Zm-6.86,0A11,11,0,0,0,29.78,7.83l.06-1A12,12,0,0,1,41.08,18Z" fill="#105baa"/>
</svg>
