<svg xmlns="http://www.w3.org/2000/svg" viewBox="0 0 17.25 17.25"><defs><style>.cls-1{fill:none;stroke:#9baab2;stroke-miterlimit:10;stroke-width:0.75px;}</style></defs><title>Asset 9</title><g id="Layer_2"><g id="Layer_1-2"><circle class="cls-1" cx="8.63" cy="8.63" r="8.25"/><path class="cls-1" d="M12.83,1.89A30.22,30.22,0,0,1,10,4.65c-.84.63-2.83.22-3.57-.55S5,2.62,4.33,1.88"/><path class="cls-1" d="M2.77,2.9c.65,1.05,1.33,2,1.87,3.05.42.8-.47,2.87-1.34,3.26s-1.73.7-2.6,1.06"/><path class="cls-1" d="M1.22,12.09a27.88,27.88,0,0,1,3.2-.65,3.73,3.73,0,0,1,2.84,2.09c.17,1.09.24,2.19.36,3.35"/><path class="cls-1" d="M9.47,16.85c.12-1.16.18-2.26.38-3.34s2.13-2.21,3.2-2c.9.15,1.79.35,2.68.55H16"/><path class="cls-1" d="M16.88,10.47C15.74,10,14.54,9.58,13.45,9c-.89-.48-1.29-2.64-.77-3.48s1-1.57,1.5-2.36a1.35,1.35,0,0,1,.23-.2"/></g></g></svg>