<svg xmlns="http://www.w3.org/2000/svg" width="41.88" height="47.33" viewBox="0 0 41.88 47.33">
  <title>air</title>
  <path d="M21.38,47.33h-1V0h1Zm8-41.65-.48-.88L20.78,9.28,12.84,4.8l-.49.87,8.42,4.75ZM21,38.61l7.93,4.48.49-.87L21,37.46l-8.63,4.75.48.88ZM41.76,12.51l-.49-.87L0,34.82l.49.87Zm-.49,8.93-7.89-4.91,0-9.11h-1l0,9.67,8.37,5.2ZM8.9,30.52.54,25.31,0,26.16,7.9,31.07l0,9.11h1Zm33,4.37L.61,11.71l-.49.87L41.39,35.76Zm-8.29-4.2L41.38,26l-.52-.86-8.26,5L32.5,40h1ZM8.91,17.07,9,7.22H8L7.92,16.5.13,21.23l.52.86Z" fill="#115baa"/>
</svg>
