<svg xmlns="http://www.w3.org/2000/svg" width="357" height="195" viewBox="0 0 357 195">
  <title>soon</title>
  <g>
    <rect width="357" height="195" fill="#06273b" opacity="0.04"/>
    <g>
      <g opacity="0.07">
        <g>
          <path d="M148.36,96.53a40.48,40.48,0,0,0-.61-5.72,12.73,12.73,0,0,0-12.95-9.5,12.57,12.57,0,0,0-12.22,10.38c-.37,2.34-1.21,3-3.38,2.8-3.43-.26-7,.42-10-2a7.74,7.74,0,0,1-2.31-2.86c-1.44-3.66-.8-7.26.41-10.92a16.54,16.54,0,0,0,.81-6.48c-.19-2.14.43-3.38,2.39-3.6,2.91-.33,5.86-.25,8.78-.48a19.94,19.94,0,0,0,5.08-.9c2.86-1,5.64-2.3,8.4-3.57a54.1,54.1,0,0,1,22.8-5.13c7.36,0,14.73-.4,22.09-.23,10.93.25,20.32,4.89,29,11.13a18,18,0,0,0,7.55,2.84q13.7,2.67,27.3,5.82a13.83,13.83,0,0,1,5.45,2.76c3.33,2.73,4.2,9.53,1.44,12.89a10.22,10.22,0,0,1-5.48,2.9c-2.24.49-4.67.11-7.41.11.37-5.21-.85-9.68-5.07-12.86a12.83,12.83,0,0,0-8.85-2.55c-7.19.45-11.08,5.23-12.13,15.19Z" fill="#06273b"/>
          <path d="M135.38,104.42a10.2,10.2,0,1,1,10.06-10.54A10.44,10.44,0,0,1,135.38,104.42Z" fill="#06273b"/>
          <path d="M222.42,104.42a10.45,10.45,0,0,1-10.05-10.54,10.2,10.2,0,0,1,20.39.29A10.44,10.44,0,0,1,222.42,104.42Z" fill="#06273b"/>
        </g>
      </g>
      <g opacity="0.14">
        <path d="M100.67,129.45V133H98.62V123h3.88a4.49,4.49,0,0,1,2,.41,3,3,0,0,1,1.31,1.17,3.25,3.25,0,0,1,.46,1.72,2.86,2.86,0,0,1-1,2.31,4.17,4.17,0,0,1-2.77.84Zm0-1.66h1.83a1.8,1.8,0,0,0,1.24-.38,1.39,1.39,0,0,0,.43-1.09,1.64,1.64,0,0,0-.43-1.18,1.61,1.61,0,0,0-1.19-.46h-1.88Z"/>
        <path d="M116.65,133H114.6v-4.27h-4V133h-2.05V123h2.05v4h4v-4h2.05Z"/>
        <path d="M127.51,128.21a6,6,0,0,1-.52,2.58,3.91,3.91,0,0,1-1.49,1.71,4.39,4.39,0,0,1-4.43,0,4,4,0,0,1-1.5-1.7,5.84,5.84,0,0,1-.54-2.54v-.49a6,6,0,0,1,.53-2.59,3.94,3.94,0,0,1,1.5-1.72,4.39,4.39,0,0,1,4.42,0,3.94,3.94,0,0,1,1.5,1.72,6,6,0,0,1,.53,2.58Zm-2.08-.45a4.19,4.19,0,0,0-.56-2.38,2,2,0,0,0-3.19,0,4.14,4.14,0,0,0-.57,2.36v.49a4.24,4.24,0,0,0,.56,2.37,2,2,0,0,0,3.2,0,4.21,4.21,0,0,0,.56-2.36Z"/>
        <path d="M137.39,124.67h-3V133h-2.05v-8.29h-3V123h8.11Z"/>
        <path d="M147.63,128.21a6,6,0,0,1-.52,2.58,3.91,3.91,0,0,1-1.49,1.71,4.39,4.39,0,0,1-4.43,0,4,4,0,0,1-1.5-1.7,5.84,5.84,0,0,1-.54-2.54v-.49a6,6,0,0,1,.53-2.59,3.94,3.94,0,0,1,1.5-1.72,4.39,4.39,0,0,1,4.42,0,3.94,3.94,0,0,1,1.5,1.72,6,6,0,0,1,.53,2.58Zm-2.08-.45a4.19,4.19,0,0,0-.56-2.38,2,2,0,0,0-3.19,0,4.14,4.14,0,0,0-.57,2.36v.49a4.24,4.24,0,0,0,.56,2.37,2,2,0,0,0,3.2,0,4.21,4.21,0,0,0,.56-2.36Z"/>
        <path d="M162.21,129.64a3.52,3.52,0,0,1-1.19,2.53,4.17,4.17,0,0,1-2.82.92,3.75,3.75,0,0,1-3-1.29,5.28,5.28,0,0,1-1.1-3.54v-.61a6,6,0,0,1,.51-2.53,3.8,3.8,0,0,1,1.45-1.68,4.52,4.52,0,0,1,5,.34,3.78,3.78,0,0,1,1.22,2.59h-2.05a2.08,2.08,0,0,0-.54-1.4,2,2,0,0,0-1.4-.43,1.74,1.74,0,0,0-1.53.73,4.12,4.12,0,0,0-.52,2.28v.75a4.41,4.41,0,0,0,.49,2.36,1.71,1.71,0,0,0,1.54.75,2,2,0,0,0,1.42-.43,2,2,0,0,0,.54-1.34Z"/>
        <path d="M172.63,128.21a6,6,0,0,1-.52,2.58,3.91,3.91,0,0,1-1.49,1.71,4.39,4.39,0,0,1-4.43,0,4,4,0,0,1-1.5-1.7,5.84,5.84,0,0,1-.54-2.54v-.49a6,6,0,0,1,.53-2.59,3.94,3.94,0,0,1,1.5-1.72,4.39,4.39,0,0,1,4.42,0,3.94,3.94,0,0,1,1.5,1.72,6,6,0,0,1,.53,2.58Zm-2.08-.45a4.19,4.19,0,0,0-.56-2.38,2,2,0,0,0-3.19,0,4.14,4.14,0,0,0-.57,2.36v.49a4.24,4.24,0,0,0,.56,2.37,2,2,0,0,0,3.2,0,4.21,4.21,0,0,0,.56-2.36Z"/>
        <path d="M177.7,123l2.56,7.22L182.8,123h2.69v10h-2.06v-2.72l.21-4.7L181,133h-1.41l-2.68-7.41.21,4.69V133H175V123Z"/>
        <path d="M190.36,133h-2.05V123h2.05Z"/>
        <path d="M201.25,133H199.2l-4-6.55V133h-2.05V123h2.05l4,6.56V123h2Z"/>
        <path d="M211.81,131.7a3.56,3.56,0,0,1-1.57,1,6.57,6.57,0,0,1-2.24.37,4.43,4.43,0,0,1-2.27-.56,3.75,3.75,0,0,1-1.5-1.64,5.77,5.77,0,0,1-.54-2.52v-.68a6.12,6.12,0,0,1,.5-2.58,3.71,3.71,0,0,1,1.45-1.67,4.77,4.77,0,0,1,5,.27,3.61,3.61,0,0,1,1.18,2.46h-2a2,2,0,0,0-.6-1.25,1.93,1.93,0,0,0-1.29-.4,1.82,1.82,0,0,0-1.59.79,4.13,4.13,0,0,0-.55,2.34v.64a3.93,3.93,0,0,0,.59,2.37,2,2,0,0,0,1.74.8,2.28,2.28,0,0,0,1.65-.49v-1.72h-1.87v-1.51h3.92Z"/>
        <path d="M223.91,130.35a1.05,1.05,0,0,0-.41-.89,5.4,5.4,0,0,0-1.48-.66,10.38,10.38,0,0,1-1.69-.68,2.76,2.76,0,0,1-1.7-2.47,2.4,2.4,0,0,1,.45-1.44,3,3,0,0,1,1.31-1,4.91,4.91,0,0,1,1.91-.36,4.47,4.47,0,0,1,1.9.39,3,3,0,0,1,1.3,1.09,2.85,2.85,0,0,1,.46,1.6h-2.05a1.34,1.34,0,0,0-.43-1.06,1.77,1.77,0,0,0-1.21-.38,1.9,1.9,0,0,0-1.17.32,1,1,0,0,0-.42.84,1,1,0,0,0,.49.81,5.52,5.52,0,0,0,1.44.62,6.21,6.21,0,0,1,2.55,1.31,2.6,2.6,0,0,1,.8,1.94,2.4,2.4,0,0,1-1,2,4.28,4.28,0,0,1-2.63.73,5.1,5.1,0,0,1-2.09-.42,3.32,3.32,0,0,1-1.44-1.15,3,3,0,0,1-.5-1.7h2.06q0,1.65,2,1.65a1.91,1.91,0,0,0,1.14-.3A1,1,0,0,0,223.91,130.35Z"/>
        <path d="M236.43,128.21a6,6,0,0,1-.52,2.58,3.91,3.91,0,0,1-1.49,1.71,4.39,4.39,0,0,1-4.43,0,4,4,0,0,1-1.5-1.7,5.84,5.84,0,0,1-.54-2.54v-.49a6,6,0,0,1,.53-2.59,3.94,3.94,0,0,1,1.5-1.72,4.39,4.39,0,0,1,4.42,0,3.94,3.94,0,0,1,1.5,1.72,6,6,0,0,1,.53,2.58Zm-2.08-.45a4.19,4.19,0,0,0-.56-2.38,2,2,0,0,0-3.19,0,4.14,4.14,0,0,0-.57,2.36v.49a4.24,4.24,0,0,0,.56,2.37,2,2,0,0,0,3.2,0,4.21,4.21,0,0,0,.56-2.36Z"/>
        <path d="M247,128.21a6,6,0,0,1-.52,2.58,3.91,3.91,0,0,1-1.49,1.71,4.39,4.39,0,0,1-4.43,0,4,4,0,0,1-1.5-1.7,5.84,5.84,0,0,1-.54-2.54v-.49a6,6,0,0,1,.53-2.59,3.94,3.94,0,0,1,1.5-1.72,4.39,4.39,0,0,1,4.42,0,3.94,3.94,0,0,1,1.5,1.72,6,6,0,0,1,.53,2.58Zm-2.08-.45a4.19,4.19,0,0,0-.56-2.38,2,2,0,0,0-3.19,0,4.14,4.14,0,0,0-.57,2.36v.49a4.24,4.24,0,0,0,.56,2.37,2,2,0,0,0,3.2,0,4.21,4.21,0,0,0,.56-2.36Z"/>
        <path d="M257.47,133h-2.05l-4-6.55V133h-2.05V123h2.05l4,6.56V123h2Z"/>
      </g>
    </g>
  </g>
</svg>
