<svg xmlns="http://www.w3.org/2000/svg" width="14.11" height="16.44" viewBox="0 0 14.11 16.44">
  <title>certified</title>
  <path d="M7.06,16.44a.8.8,0,0,1-.34-.08,14.61,14.61,0,0,1-4.48-3.17A7.75,7.75,0,0,1,.18,9.51,7,7,0,0,1,0,8.08c0-1.45,0-2.9,0-4.35V1.39A.71.71,0,0,1,.46.7c2.22-.92,11-.93,13.17,0a.74.74,0,0,1,.48.74q0,1.35,0,2.71v1.7c0,.7,0,1.41,0,2.11A6.94,6.94,0,0,1,13,11.77a11.29,11.29,0,0,1-3.13,3.16A15.52,15.52,0,0,1,7.4,16.36.82.82,0,0,1,7.06,16.44Zm.09-1h0ZM1,1.56V3.73C1,5.17,1,6.62,1,8.07a6,6,0,0,0,.14,1.22A6.79,6.79,0,0,0,3,12.51a13.57,13.57,0,0,0,4.1,2.91,14.73,14.73,0,0,0,2.22-1.29,10.3,10.3,0,0,0,2.86-2.88,5.86,5.86,0,0,0,1-3.29c0-.71,0-1.42,0-2.13V4.13q0-1.29,0-2.57C11,.81,3.18.82,1,1.56ZM11.46,5.33l-.71-.71L6.38,9,5,7.56l-.71.71L6.38,10.4Z" fill="#115baa"/>
</svg>
