<svg width='96' height='96' viewBox="0 0 96 96">
  <circle cx="48" cy="48" r="48" fill="#115baa" opacity="0.05"/>
  <circle cx="33.9" cy="35.6" r="30.63" fill="#fff" stroke="#115baa" stroke-miterlimit="10"/>
  <line x1="83.72" y1="84.07" x2="56.37" y2="56.2" fill="#fff"/>
  <path d="M83.36,84.42q-6.86-6.94-13.63-14l-6.79-7c-2.27-2.33-4.52-4.68-6.65-7.15l.15-.15c2.44,2.17,4.74,4.47,7,6.78l6.88,6.92q6.89,6.92,13.72,13.89Z" fill="#115baa"/>
  <path d="M11.53,35.41c4.11-4.12,8.17-8.1,13.41-10.54,6.42-3,12.75-2.45,18.9.86,4.47,2.41,8,5.92,11.33,9.69C42.15,51,26.88,53.66,11.53,35.41Zm21.85,8.86a8.75,8.75,0,1,0-8.61-8.88A8.63,8.63,0,0,0,33.37,44.27Zm0-4.59a4.16,4.16,0,1,0-4.1-4.23A4.1,4.1,0,0,0,33.39,39.69Zm1.73-7.53-2.77,2.77M37,33l-3.26,3.26" fill="#fff" stroke="#115baa" stroke-miterlimit="10"/>
</svg>
