<svg width='96.06' height='99.21' viewBox="0 0 96.06 99.21">
  <circle cx="48" cy="51.21" r="48" fill="#115baa" opacity="0.05"/>
  <path d="M91.79,48.86C97.35,55.35,96,59,91.93,62c.48,3.09,2.1,6.45,1.05,8.31a14.44,14.44,0,0,0-1.75,9.84c.39,2.89-1.71,4.92-4.79,5.27a58.6,58.6,0,0,1-6.26.31q-18.34.09-36.67.1c-5.37,0-6.27-.85-6.23-6.07.09-10.89,0-21.8.54-32.67.44-8.53,4.51-15.77,10-22.2a40.57,40.57,0,0,1,3.46-4c4.12-3.71,6.71-7.87,6-13.79A5.59,5.59,0,0,1,61.7.66c2.79-.71,6.05,1,7.55,4.09a23.75,23.75,0,0,1,.95,18,70,70,0,0,1-3.16,8c-1.15,2.5-.47,3.43,2.22,3.4,5.95-.07,11.89.05,17.84-.05,3.33-.06,6.16.61,7.69,3.9s.77,6.73-2,9.69C92.46,48.06,92.12,48.48,91.79,48.86Z" fill="#fff" stroke="#115baa" stroke-miterlimit="10"/>
  <path d="M7.49,68.1c0-6.27,0-12.54,0-18.81,0-3.79.9-4.8,4.6-4.89,5.06-.13,10.12,0,15.18,0,2.95,0,4.39,1.4,4.38,4.48q-.09,19.47,0,38.94c0,3-1.27,4.55-4.28,4.56-5.17,0-10.34,0-15.51,0-3.21,0-4.45-1.68-4.41-4.8C7.56,81.08,7.49,74.59,7.49,68.1Z" fill="#fff" stroke="#115baa" stroke-miterlimit="10"/>
  <line x1="76.76" y1="49.36" x2="88.91" y2="49.36" fill="#fff" stroke="#115baa" stroke-miterlimit="10"/>
  <line x1="77.94" y1="61.82" x2="87.97" y2="61.82" fill="#fff" stroke="#115baa" stroke-miterlimit="10"/>
  <line x1="25.76" y1="59.9" x2="20.29" y2="65.37" fill="#fff" stroke="#115baa" stroke-miterlimit="10"/>
  <line x1="25.76" y1="70.23" x2="20.29" y2="75.7" fill="#fff" stroke="#115baa" stroke-miterlimit="10"/>
</svg>
